<svg version="1.1" viewBox="0.0 0.0 590.5774278215223 586.5721784776903" fill="none" stroke="none" stroke-linecap="square" stroke-miterlimit="10" xmlns:xlink="http://www.w3.org/1999/xlink" xmlns="http://www.w3.org/2000/svg"><clipPath id="p.0"><path d="m0 0l590.57745 0l0 586.5722l-590.57745 0l0 -586.5722z" clip-rule="nonzero"/></clipPath><g clip-path="url(#p.0)"><path fill="#000000" fill-opacity="0.0" d="m0 0l590.57745 0l0 586.5722l-590.57745 0z" fill-rule="evenodd"/><path fill="#f3f3f3" d="m446.01633 101.56295l-6.3321533 2.0353928l-6.3321533 4.2969284l-4.1837463 4.183853l-4.296814 4.183861l-4.183777 6.332321l-2.0353088 6.332321l0 8.480789l0 6.2192383l2.0353088 6.332321l2.1484375 6.332321l6.3321533 4.296936l4.1837463 4.183853l6.3321533 4.183853l6.3321533 2.148468l14.6996765 0l6.3321533 -2.148468l6.3321533 -4.183853l4.1837463 -4.183853l4.296814 -4.296936l4.1837463 -6.332321l2.1484375 -6.332321l0 -6.2192383l0 -8.480789l-2.1484375 -6.332321l-4.1837463 -6.332321l-4.296814 -4.183861l-4.1837463 -4.183853l-6.3321533 -4.2969284l-6.3321533 -2.0353928zm-149.71033 92.723274l18.99646 2.0353851l18.99649 6.332321l16.848053 8.480789l14.812744 12.664642l10.5159 14.700043l10.5159 16.848495l4.183777 18.996948l2.148407 18.996979l-2.148407 18.996948l-4.183777 18.883911l-10.5159 16.961548l-10.5159 14.700043l-14.812744 12.664642l-16.848053 8.367706l-18.99649 6.3323364l-37.879883 0l-18.99646 -6.3323364l-16.848083 -8.367706l-14.812729 -12.664642l-12.664322 -14.700043l-8.367493 -16.961548l-6.3321533 -18.883911l-2.148407 -18.996948l2.148407 -18.996979l6.3321533 -18.996948l8.367493 -16.848495l12.664322 -14.700043l14.812729 -12.664642l16.848083 -8.480789l18.99646 -6.332321l18.883423 -2.0353851zm0 -52.693954l-14.6996765 2.0353851l-16.848053 2.148468l-12.664322 4.183853l-14.812729 4.296936l-12.551254 6.332321l-12.664307 8.367706l-12.664322 8.480789l-10.515915 8.367706l-8.48056 10.516174l-8.367508 12.664642l-8.48056 12.664642l-6.3321686 12.664642l-4.1837463 14.700043l-4.1837463 14.813095l-2.148407 14.700043l-2.1484222 14.81311l2.1484222 14.700043l2.148407 14.81308l4.1837463 14.700043l4.1837463 14.81311l6.3321686 12.664642l8.48056 12.664642l8.367508 10.516174l8.48056 12.664642l10.515915 8.367706l12.664322 8.480804l12.664307 8.367706l12.551254 6.332306l14.812729 4.1838684l12.664322 4.296936l16.848053 2.0353699l29.51239 0l14.6996765 -2.0353699l14.812714 -4.296936l14.699646 -4.1838684l12.664337 -6.332306l12.664307 -8.367706l10.51593 -8.480804l12.664307 -8.367706l8.48056 -12.664642l8.367493 -10.516174l8.480591 -12.664642l6.3321533 -12.664642l4.1837463 -14.81311l4.1837463 -14.700043l2.148407 -14.81308l0 -14.700043l0 -14.81311l-2.148407 -14.700043l-4.1837463 -14.813095l-4.1837463 -14.700043l-6.3321533 -12.664642l-8.480591 -12.664642l-8.367493 -12.664642l-8.48056 -10.516174l-12.664307 -8.367706l-10.51593 -8.480789l-12.664307 -8.367706l-12.664337 -6.332321l-14.699646 -4.296936l-14.812714 -4.183853l-14.6996765 -2.148468l-14.812714 -2.0353851zm40.141357 -90.68789l48.395782 2.148468l46.360474 2.1484642l21.144867 4.183857l16.848083 4.183853l18.99649 10.516174l14.699646 12.664642l12.664307 14.81311l10.51593 18.883888l4.183716 16.961578l4.296814 18.88388l2.0353394 48.5101l0 48.5101l0 40.029327l0 40.029327l0 48.5101l-2.0353394 46.361633l-4.296814 21.032349l-4.183716 16.84848l-10.51593 18.996979l-12.664307 14.81311l-14.699646 12.551544l-18.99649 10.629272l-16.848083 4.183838l-21.144867 4.183899l-46.360474 2.1484375l-176.96123 0l-48.508865 -2.1484375l-18.99649 -4.183899l-16.84806 -4.183838l-18.996483 -10.629272l-14.699654 -12.551544l-12.664322 -14.81311l-10.515907 -18.996979l-4.2968216 -16.84848l-4.1837463 -21.032349l-2.1484146 -46.361633l-2.0353355 -48.5101l2.0353355 -40.029327l-2.0353355 -40.029327l2.0353355 -48.5101l2.1484146 -48.5101l4.1837463 -18.88388l4.2968216 -16.961578l10.515907 -18.883888l12.664322 -14.81311l14.699654 -12.664642l18.996483 -10.516174l16.84806 -4.183853l18.99649 -4.183857l48.508865 -2.1484642l48.395798 -2.148468l40.02829 2.148468l40.141357 -2.148468zm-162.37466 -50.545494l-33.696136 4.183855l-16.84806 4.296932l-14.8127365 4.183855l-14.699654 6.332321l-14.812729 8.36771l-14.699654 8.480787l-12.664322 12.664642l-12.664318 12.664642l-8.367498 14.700031l-8.48057 14.700035l-6.33216 14.813103l-4.1837482 14.700035l-4.1837482 16.961578l-4.2968225 33.69699l0 52.693954l-2.035337 69.542465l2.035337 69.54245l0 50.5455l4.2968225 35.84546l4.1837482 14.81311l4.1837482 16.84848l6.33216 14.700043l8.48057 14.81311l8.367498 14.700043l12.664318 12.664612l12.664322 12.664673l14.699654 8.480774l14.812729 8.367737l14.699654 6.3322754l14.8127365 4.183899l16.84806 4.296936l33.696136 2.0353394l52.69261 2.1484985l139.19444 0l50.54419 -2.1484985l35.844543 -2.0353394l14.6996765 -4.296936l16.848053 -4.183899l14.812744 -6.3322754l14.6996765 -8.367737l14.812683 -8.480774l12.664368 -12.664673l10.515869 -12.664612l10.51593 -14.700043l8.480591 -14.81311l6.219055 -14.700043l4.296814 -16.84848l4.183777 -14.81311l2.1483765 -35.84546l2.0353394 -50.5455l0 -69.54245l0 -69.542465l-2.0353394 -52.693954l-2.1483765 -33.69699l-4.183777 -16.961578l-4.296814 -14.700035l-6.219055 -14.813103l-8.480591 -14.700035l-10.51593 -14.700031l-10.515869 -12.664642l-12.664368 -12.664642l-14.812683 -8.480787l-14.6996765 -8.36771l-14.812744 -6.332321l-16.848053 -4.183855l-14.6996765 -4.296932l-35.844543 -4.183855z" fill-rule="evenodd"/></g></svg>