<svg version="1.1" viewBox="0.0 0.0 800.0 600.0" fill="none" stroke="none" stroke-linecap="square" stroke-miterlimit="10" xmlns:xlink="http://www.w3.org/1999/xlink" xmlns="http://www.w3.org/2000/svg"><clipPath id="p.0"><path d="m0 0l800.0 0l0 600.0l-800.0 0l0 -600.0z" clip-rule="nonzero"/></clipPath><g clip-path="url(#p.0)"><path fill="#000000" fill-opacity="0.0" d="m0 0l800.0 0l0 600.0l-800.0 0z" fill-rule="evenodd"/><path fill="#674ea7" d="m292.43307 59.380577l-8.766418 0.5144348l-8.682404 0.86089325l-8.509186 1.2887154l-8.422577 1.7191582l-8.251968 2.1496048l-8.078735 2.4908142l-7.908142 2.8372726l-7.648285 3.265091l-7.564316 3.698166l-10.916 6.015747l-13.666672 9.283463l-12.7217865 10.485565l-11.687668 11.68766l-10.485565 12.721794l-9.283463 13.6666565l-6.015747 10.916016l-3.6955261 7.5643005l-3.2677307 7.6483l-2.837265 7.908127l-2.4908142 8.078751l-2.1495972 8.251968l-1.7191696 8.422562l-1.2887115 8.509186l-0.86089325 8.679794l-0.5144348 8.769028l0 4.469818l0 257.8504l0.086616516 2.666687l0.5144348 5.154846l1.0314941 5.0734863l1.461937 4.811035l1.9763794 4.643036l2.4068298 4.383209l2.7506561 4.1259766l3.1811066 3.86615l3.4356842 3.4382935l3.8687744 3.1810913l4.1259766 2.7506714l4.383209 2.4068604l4.6404114 1.9763794l4.8136597 1.4619141l5.070862 1.0314941l5.157486 0.51446533l2.664032 0.08660889l137.52231 0l2.6640625 -0.08660889l5.1574707 -0.51446533l5.070862 -1.0314941l4.8136597 -1.4619141l4.6404114 -1.9763794l4.383209 -2.4068604l4.1259766 -2.7506714l3.8687744 -3.1810913l3.438324 -3.4382935l3.1810913 -3.86615l2.7480164 -4.1259766l2.4068298 -4.383209l1.9790039 -4.643036l1.4593201 -4.811035l1.0314941 -5.0734863l0.5170593 -5.154846l0.083984375 -2.666687l0 -137.51968l-0.083984375 -2.664032l-0.5170593 -5.1574707l-1.0314941 -5.0708923l-1.4593201 -4.813629l-1.9790039 -4.643036l-2.4068298 -4.383209l-2.7480164 -4.1259766l-3.1810913 -3.86615l-3.438324 -3.438324l-3.8687744 -3.1810913l-4.1259766 -2.7506714l-4.383209 -2.4068298l-4.6404114 -1.9763794l-4.8136597 -1.4593201l-5.070862 -1.0314941l-5.1574707 -0.5170593l-2.6640625 -0.08660889l-85.95012 0l0 -68.75853l0.08660889 -3.5249329l0.68504333 -6.963257l1.3753204 -6.703415l1.9790039 -6.4461823l2.6640472 -6.18898l3.1784668 -5.845154l3.698166 -5.4986877l4.209976 -5.0734863l4.643051 -4.6404114l5.070862 -4.209976l5.4986725 -3.698166l5.845154 -3.178482l6.1889954 -2.664032l6.446167 -1.9790039l6.70343 -1.3753357l6.963257 -0.68766785l3.5249329 -0.083984375l8.59317 0l2.6666565 -0.08660889l5.070862 -1.0314941l4.553833 -1.9763794l4.1259766 -2.7506561l3.5249329 -3.5249329l2.7506409 -4.125992l1.9763794 -4.5538025l1.0314941 -5.070862l0.086639404 -2.6666718l0 -51.569557l-0.086639404 -2.6640396l-1.0314941 -5.0708694l-1.9763794 -4.556427l-2.7506409 -4.125984l-3.5249329 -3.5223083l-4.1259766 -2.7506561l-4.553833 -1.9763794l-5.070862 -1.031498l-2.6666565 -0.0866127zm309.42258 0l-8.766418 0.5144348l-8.682434 0.86089325l-8.509155 1.2887154l-8.422607 1.7191582l-8.251953 2.1496048l-8.078735 2.4908142l-7.908142 2.8372726l-7.6482544 3.265091l-7.564331 3.698166l-10.916016 6.015747l-13.6666565 9.283463l-12.719177 10.485565l-11.690277 11.68766l-10.485565 12.721794l-9.283447 13.6666565l-6.0157776 10.916016l-3.6955261 7.5643005l-3.2677002 7.6483l-2.8346558 7.908127l-2.4934387 8.078751l-2.1495972 8.251968l-1.7191772 8.422562l-1.2886963 8.509186l-0.85827637 8.679794l-0.5170593 8.769028l0 4.469818l0 257.8504l0.08660889 2.666687l0.5170593 5.154846l1.0314941 5.0734863l1.4593201 4.811035l1.9763794 4.643036l2.4068298 4.383209l2.7506409 4.1259766l3.1811218 3.86615l3.438324 3.4382935l3.8661194 3.1810913l4.126007 2.7506714l4.3831787 2.4068604l4.6430664 1.9763794l4.813629 1.4619141l5.070862 1.0314941l5.157501 0.51446533l2.664032 0.08660889l137.51971 0l2.666626 -0.08660889l5.154846 -0.51446533l5.070862 -1.0314941l4.8136597 -1.4619141l4.6430664 -1.9763794l4.3831787 -2.4068604l4.1259766 -2.7506714l3.86615 -3.1810913l3.4383545 -3.4382935l3.1810913 -3.86615l2.7506714 -4.1259766l2.4067993 -4.383209l1.9763794 -4.643036l1.4619141 -4.811035l1.0314941 -5.0734863l0.51446533 -5.154846l0.08660889 -2.666687l0 -137.51968l-0.08660889 -2.664032l-0.51446533 -5.1574707l-1.0314941 -5.0708923l-1.4619141 -4.813629l-1.9763794 -4.643036l-2.4067993 -4.383209l-2.7506714 -4.1259766l-3.1810913 -3.86615l-3.4383545 -3.438324l-3.86615 -3.1810913l-4.1259766 -2.7506714l-4.3831787 -2.4068298l-4.6430664 -1.9763794l-4.8136597 -1.4593201l-5.070862 -1.0314941l-5.154846 -0.5170593l-2.666626 -0.08660889l-85.950134 0l0 -68.75853l0.08660889 -3.5249329l0.6876221 -6.963257l1.3753662 -6.703415l1.9763794 -6.4461823l2.6640015 -6.18898l3.1811523 -5.845154l3.6954956 -5.4986877l4.2125854 -5.0734863l4.640442 -4.6404114l5.070862 -4.209976l5.501343 -3.698166l5.845154 -3.178482l6.1863403 -2.664032l6.446167 -1.9790039l6.7060547 -1.3753357l6.9606323 -0.68766785l3.5249023 -0.083984375l8.595825 0l2.6640625 -0.08660889l5.070862 -1.0314941l4.5563965 -1.9763794l4.123352 -2.7506561l3.5249634 -3.5249329l2.7506714 -4.125992l1.9763794 -4.5538025l1.0314941 -5.070862l0.08660889 -2.6666718l0 -51.569557l-0.08660889 -2.6640396l-1.0314941 -5.0708694l-1.9763794 -4.556427l-2.7506714 -4.125984l-3.5249634 -3.5223083l-4.123352 -2.7506561l-4.5563965 -1.9763794l-5.070862 -1.031498l-2.6640625 -0.0866127z" fill-rule="evenodd"/></g></svg>