<svg version="1.1" viewBox="0.0 0.0 721.8136482939633 586.0787401574803" fill="none" stroke="none" stroke-linecap="square" stroke-miterlimit="10" xmlns:xlink="http://www.w3.org/1999/xlink" xmlns="http://www.w3.org/2000/svg"><clipPath id="p.0"><path d="m0 0l721.81366 0l0 586.07874l-721.81366 0l0 -586.07874z" clip-rule="nonzero"/></clipPath><g clip-path="url(#p.0)"><path fill="#000000" fill-opacity="0.0" d="m0 0l721.81366 0l0 586.07874l-721.81366 0z" fill-rule="evenodd"/><path fill="#f3f3f3" d="m499.95596 0.28450185l-15.766602 2.3042014l-13.583557 2.1829276l-15.887878 2.3042011l-13.583557 6.79133l-11.279175 4.48713l-13.583557 9.095531l-11.279175 6.7913303l-8.9748535 11.278458l-11.400482 8.974258l-6.791748 11.399731l-8.9748535 13.5826645l-4.4874268 11.278458l-6.791748 13.582657l-2.3043518 15.765587l-2.3043518 13.582657l0 15.7655945l0 15.886856l2.3043518 18.069794l-45.238068 -4.4871216l-42.933685 -11.3997345l-42.9337 -13.461395l-38.446274 -18.069778l-38.446274 -20.373993l-36.141922 -27.165321l-31.65451 -29.348251l-29.350151 -31.652449l-6.791771 18.069788l-6.791771 18.06979l-4.487423 18.069786l0 20.373993l0 20.373993l4.487423 18.069786l4.487419 15.7655945l9.096123 18.069778l8.974838 13.582672l11.27919 13.582657l11.400475 13.582657l15.766609 11.278458l-18.070961 -2.3041992l-18.070961 -4.4871216l-15.887894 -4.487137l-15.766611 -9.095535l0 2.3041992l2.30435 27.165329l6.6704903 24.86113l11.400475 22.556915l13.462261 20.373993l18.192242 18.069763l20.254036 13.582672l22.679665 11.278473l24.862732 6.791321l-20.37532 4.4871216l-20.375305 0l-27.045807 -2.1829224l8.974838 22.556915l11.279198 18.069794l13.583542 18.069794l18.070961 15.886871l18.070969 11.278442l22.679657 8.974274l22.55838 6.791321l22.679672 2.3041992l-20.37532 13.582672l-20.375305 13.582642l-20.37532 8.974274l-22.55838 9.09552l-24.862732 6.791321l-24.86274 6.791321l-24.862732 2.1829224l-24.862732 2.3041992l-36.141926 -2.3041992l24.862734 13.582703l27.045801 13.582642l27.167084 11.278442l27.167084 9.09552l29.350159 8.974304l29.350159 4.6083984l31.654495 4.4871216l31.65451 0l47.542404 -2.3041992l47.421112 -6.791321l42.933685 -13.582703l40.75064 -15.765564l38.44626 -20.373962l33.837585 -22.556946l31.65451 -27.165314l27.167053 -27.165314l27.167114 -31.531189l20.254028 -33.956665l18.070984 -33.956635l15.887878 -36.139587l11.279175 -36.139587l9.09613 -38.44377l6.791748 -36.139572l0 -38.443787l0 -18.069778l20.254028 -18.069794l20.375366 -18.191063l18.070923 -18.069786l15.887878 -22.556923l-20.375305 9.095535l-20.375305 6.6700516l-22.55835 4.608406l-22.679688 2.18293l0 0l22.679688 -15.7655945l18.070923 -18.069786l13.583557 -22.678192l11.279175 -24.861118l0 0l-22.55835 11.399734l-22.679688 11.27846l-24.862732 6.7913284l-22.55835 6.7913322l-11.400513 -11.3997345l-11.279175 -8.9742565l-13.583557 -6.7913303l-13.462219 -6.7913313l-13.583557 -4.4871283l-13.583557 -4.6084027l-15.887878 -2.1829276l-15.766632 -2.3042014z" fill-rule="evenodd"/></g></svg>